<svg id="레이어_1" data-name="레이어 1" xmlns="http://www.w3.org/2000/svg" viewBox="0 0 1025.74 1024.31"><defs><style>.cls-1,.cls-4{fill:#231815;}.cls-2{fill:none;}.cls-2,.cls-3,.cls-4{fill-rule:evenodd;}.cls-3{fill:#fff;}</style></defs><rect class="cls-1" x="1.74" y="0.31" width="1024" height="1024" rx="50"/><path class="cls-2" d="M80,0H879c50.32,0,77.51-2.61,107,19,16.71,12.25,29.44,32.74,36,55,4.23,14.37,2,35.6,2,53V890c0,18.79,2.63,42.37-2,58-5.69,19.2-16.64,40.23-31,51-12.13,9.1-25.65,17.18-42,22-16.69,4.92-42.07,2-62,2H127c-17.11,0-37.9,2.18-52-2-28.24-8.37-49.15-25.23-63-48C-1.07,951.52,0,919.26,0,884V133c0-27.5-1.19-55.06,7-74,8.73-20.19,24.93-37,43-48C58.08,6.08,72.83,4.76,80,0Z" transform="translate(0.06 0.1)"/><path class="cls-3" d="M358,819c-7.58,1.2-12.1,4.7-21,3-4-16.6-12.65-34.51-19-50-14.31-34.88-22.7-70.13-37-105-7.23-17.64-12.45-36.57-20-55-2.31-5.64-6.38-13-8-19-2.94-10.89,4.07-32.66,4-45h2c3.88,5.61,25.17,26.73,32,28,7.11-5.29,27.34-7,33-12,1.85-1.63.31-5.07,1-8a150.84,150.84,0,0,0,4-34h2c3.25,4.69,26.52,26.93,32,28,9.36-6.83,35.17-6.07,35-21,2.89-4.6,4-26.81,4-34h2c3.45,5,26.63,27.32,33,28,5.46-4.15,25.31-10.87,33-12l4-42h2c3.25,4.69,26.52,26.93,32,28,7.11-5.29,27.34-7,33-12,1.85-1.63.31-5.07,1-8a150.84,150.84,0,0,0,4-34h2c3.06,4.58,26.65,26.95,32,28,9.36-6.83,35.17-6.07,35-21,2.89-4.6,4-26.81,4-34h2c3.44,5,26.68,27.29,33,28,6.21-4.89,25.41-10.83,35-9,4.36,18.88,15.67,43.15,23,61,14.3,34.84,22.72,70.21,37,105,6.93,16.87,21.41,45.68,22,66-16.93,9.26-37.12,13.25-56,21-14.92,6.12-32.24,15.14-49,18v37c20.7.09,33.6,12.85,38,29v20c0,21-3.37,48,1,67v8c4,14.09,12.59,22,26,27,7.48,2.79,17.82,3.46,26,0,32.86-13.91,24-67.46,24-113V544c0-31-5.57-77.43,8-96,12.25-16.76,48.76-16.81,61,0,13.65,18.75,8,88.45,8,122,0,10.15-2.82,43.72,1,50,3.75-29.13,50.44-40.15,68-16,11.73,16.13,8,51.39,8,79v21c.94,4.2,3,8.11,4,12,6,3.85,8.51,7,19,7,5.35-4.26,11.14-5.2,14-12,4.34-10.32,2-29.42,2-43V193c0-51,8.87-116.13-23-136-15.1-9.41-40.25-8-65-8H139c-27.33,0-53.37-1.28-69,10C41.71,79.41,50,143,50,191V656c0,8.34-2.17,33.87,1,39,3.42-29.24,50.57-40,68-16,8.69,11.94,8,29.63,8,51v68c0,13.1-1,27.46,3,37,4.59,10.87,15,19.57,27,23,7.09,2,14.76,0,20-2,17.35-6.62,22.37-15.59,27-35V772c4-14.45,15.3-25.15,30-29,11.94-3.13,23.35,2.29,29,6,8.53,5.6,14.91,12.16,18,23v26c0,28.47-4.24,67.07,8,84,14.62,20.23,50.63,16.87,63-3C360.18,865.87,358.27,840.12,358,819Z" transform="translate(0.06 0.1)"/><path class="cls-3" d="M589,735l-38,13v72c1.06,1.72.08,4.39,1,7,2,5.74,8,8.17,12,12h12c4.16-4,8-7.85,12-12C588.41,798.07,589,765.53,589,735Z" transform="translate(0.06 0.1)"/><path class="cls-4" d="M532,239c-14.8-.43-25.91-7.32-41-8-6.59,10.06-19.83,18.35-24,30,4.75,5.2,14.69,29,16,37-10.65-.28-21.94-4-31-7-2.82-.95-9.36-1.62-10-1-10.08,7.19-16,20.54-25,29,5.26,11.72,13.74,24.7,16,38-10.55-.28-22.1-3.94-31-7-2.81-1-9.37-1.61-10-1-6,5.66-21.44,22.24-24,30,3.47,3.8,15,30.8,16,37-10.55-.28-22.1-3.94-31-7-2.81-1-9.37-1.61-10-1-5.46,3.68-22.78,23.74-25,30,4.75,5.2,14.69,29,16,37-10.55-.28-22.1-3.94-31-7-2.81-1-9.37-1.61-10-1l-24,28c3.38,13.82,13.5,24.61,16,39-10.65-.28-21.94-4-31-7-2.82-1-9.36-1.62-10-1-10.41,7.16-13.1,24.93-30,25-5.38-6.8-14-11.76-21-17-10.19-7.64-18.81-18.35-29-26-7.83-5.88-18.91-9.31-19-23,15.83-15.16,29.76-34.39,43-52,17.83-23.71,39.88-44.9,58-69,6.34-8.44,15.65-15.57,22-24,23.2-30.81,49.82-58.17,73-89,6.34-8.44,15.65-15.57,22-24,18.15-24.1,40.05-45.17,58-69,5.91-7.85,9.28-18.87,23-19,7.83,8.29,17.79,15.1,27,22,7.72,5.78,14.28,14.21,22,20,4.45,3.33,20.71,14.27,23,18,4.88,8,6.3,17.43,10,26C527.92,229.43,531.1,233.21,532,239Z" transform="translate(0.06 0.1)"/></svg>